<?xml version="1.0" encoding="utf-8"?>
<!-- Generator: Adobe Illustrator 16.0.0, SVG Export Plug-In . SVG Version: 6.00 Build 0)  -->
<!DOCTYPE svg PUBLIC "-//W3C//DTD SVG 1.1//EN" "http://www.w3.org/Graphics/SVG/1.1/DTD/svg11.dtd">
<svg version="1.1" xmlns="http://www.w3.org/2000/svg" xmlns:xlink="http://www.w3.org/1999/xlink" x="0px" y="0px"
	 width="805.958px" height="255.622px" viewBox="0 0 805.958 255.622" enable-background="new 0 0 805.958 255.622"
	 xml:space="preserve">
<g id="Layer_1">
</g>
<g id="logo">
	<g>
		<g>
			<path fill="#FFFFFF" d="M79.501,56.175c12.231-0.099,17.992,1.713,23.582,7.49c5.573,5.556,8.777,13.796,9.56,23.723
				c1.745,23.766,3.233,59.653-2.585,82.574c-2.428,9.564-8.818,17.282-17.175,22.499c-8.485,5.407-15.558,7.117-28.654,6.975
				c-6.664-0.07-13.352-0.144-20.046-0.22c14.561-43.173,20.116-99.725,16.679-142.897C67.077,56.269,73.297,56.213,79.501,56.175z
				 M72.13,182.569c10.837,0.1,15.395-2.78,18.085-12.78c5.848-23.001,5.854-59.128,4.727-82.745
				c-0.525-10.084-3.776-13.373-13.212-13.496c-0.752-0.015-1.523-0.026-2.276-0.032c1.535,32.502,0.514,77.219-9.897,109.029
				C70.42,182.552,71.278,182.558,72.13,182.569z"/>
			<path fill="#FFFFFF" d="M111.75,55.948c6.32-0.038,12.64-0.087,18.966-0.123c3.455,17.65,8.678,43.083,13.615,59.003
				c1.582-15.859,2.083-41.125,5.521-59.123c6.127-0.035,12.261-0.082,18.376-0.105c-7.796,28.89-6.32,62.18-13.323,86.767
				c-0.053,17.443-3.286,39.266-16.387,57.71c-6.232-0.044-12.471-0.091-18.709-0.137c12.255-18.29,15.879-40.171,16.486-57.688
				C129.84,117.588,119.208,83.376,111.75,55.948z"/>
			<path fill="#FFFFFF" d="M223.715,200.506c-6.454-0.023-12.92-0.047-19.387-0.076c11.532-21.787,6.904-45.521,0.059-65.212
				c-1.57,6.819-5.871,11.395-8.894,18.261c-0.829,12.943-2.398,32.809-12.985,46.853c-6.209-0.029-12.418-0.059-18.639-0.094
				c32.336-45.102,4.878-95.173,8.549-144.663c5.812-0.032,11.625-0.067,17.432-0.093c-1.803,18.826,1.121,44.518,3.963,60.604
				c2.76-16.086,4.902-41.717,13.083-60.695c5.935-0.026,11.87-0.059,17.805-0.082c-8.217,17.087-10.896,41.201-13.253,55.755
				C222.659,139.612,238.882,169.585,223.715,200.506z"/>
			<path fill="#FFFFFF" d="M288.434,200.632c-6.442-0.006-12.879-0.015-19.328-0.021c10.143-22.663,3.338-46.438-5.06-65.941
				c-0.898,6.804-2.153,13.585-4.395,20.472c0.456,12.97-2.101,30.795-12.272,45.423c-6.186-0.003-12.378-0.023-18.569-0.047
				c32.599-46.894-6.204-94.653,4.406-145.241c5.812-0.029,11.619-0.049,17.42-0.061c-4.529,19.071-1.844,44.655,1.774,60.582
				c1.81-15.979,4.29-41.568,15.278-60.648c5.929-0.012,11.858-0.029,17.787-0.053c-10.743,17.061-14.14,41.093-16.065,55.548
				C281.203,138.845,300.765,168.477,288.434,200.632z"/>
			<path fill="#FFFFFF" d="M336.176,55.005c-2.871,6.478-4.569,12.687-5.415,18.663c-7.983,0.07-15.955,0.134-23.915,0.199
				c-1.348,12.961,0.969,33.818,4.038,45.496c5.41-0.09,10.808-0.181,16.206-0.274c1.436,5.421,3.069,10.794,4.61,16.183
				c-5.433,0.097-10.878,0.192-16.322,0.286c3.658,13.56,6.588,31.677,3.548,46.61c8.882-0.076,17.74-0.154,26.576-0.216
				c-0.853,5.981-2.603,12.19-5.649,18.675c-15.43,0.021-30.883,0.023-46.342,0.006c27.913-48.688-17.35-95.147,0.496-145.554
				C308.054,55.052,322.112,55.02,336.176,55.005z"/>
			<path fill="#FFFFFF" d="M359.52,54.997c15.774-0.044,20.087,3.419,21.768,12.935c1.389,6.577,1.412,13.982,2.234,24.679
				c1.851,15.949,2.884,30.098-1.47,39.363c9.938,19.73,20.764,44.319,18.464,68.541c-6.623,0.018-13.235,0.029-19.854,0.047
				c3.759-21.703-4.062-44.542-12.576-62.358c-2.678,0.604-3.209,0.61-5.643,0.843c5.123,17.631,9.29,40.253,0.939,61.551
				c-6.163,0.006-12.325,0.021-18.477,0.021c21.634-49.855-25.298-96.043-2.468-145.618
				C348.134,54.997,353.824,54.997,359.52,54.997z M359.543,121.527c6.017-0.105,8.648-2.019,8.946-5.958
				c0.355-3.043-0.637-14.268-1.576-26.185c-0.344-12.22-1.412-16.054-10.79-15.935c-0.788,0.012-1.582,0.015-2.363,0.015
				c-2.434,13.854-0.018,35.508,3.483,48.096C358.014,121.554,358.778,121.533,359.543,121.527z"/>
			<path fill="#FFFFFF" d="M419.184,154.719c0.449,1.75,0.863,7.978,1.25,9.763c2.848,14.126,4.213,19.089,11.414,18.981
				c5.281-0.006,7.867-4.993,6.191-13.697c-1.809-8.841-5.34-18.388-17.209-29.855c-4.109-4.249-8.217-8.45-12.215-12.632
				c-15.056-15.841-19.696-33.258-19.141-44.79c1.004-17.224,19.993-29.716,35.469-29.576c12.051,0.041,14.898,7.855,14.07,19.9
				c-0.1,4.905-0.775,5.564-1.166,16.086c-5.656,0.627-11.264,1.258-16.826,1.894c-0.133-6.48,0.1-8.835,0.064-11.558
				c0.246-5.281-1.512-8.292-5.467-8.269c-4.594,0.017-8.777,4.534-9.367,12.313c-0.082,7.901-0.111,14.143,14.928,31.344
				c3.881,4.187,7.943,8.369,12.086,12.588c16.213,17.02,20.279,33.646,22.525,45.327c3.824,18.202-8.17,30.18-25.484,30.171
				c-10.299,0.062-16.088-3.718-20.127-11.383c-3.596-6.504-4.406-12.529-6.233-24.113c-0.484-2.784-0.712-3.972-1.237-7.091
				C408.208,159.799,413.7,155.033,419.184,154.719z"/>
			<path fill="#FFFFFF" d="M448.643,55.122c6.35,0.021,12.693,0.043,19.049,0.067c-6.91,16.968-4.68,41.353,0.805,56.704
				c0.881-15.383,5.428-39.876,18.459-56.616c6.162,0.032,12.342,0.067,18.523,0.103c-21.348,26.272-23.076,58.842-21.855,83.583
				c5.357,17.609,11.863,40.372,12.588,61.156c-6.162,0.038-12.314,0.063-18.477,0.102c0.467-20.947-5.883-43.672-11.326-61.22
				C452.495,114.279,439.061,82.343,448.643,55.122z"/>
			<path fill="#FFFFFF" d="M580.801,199.604c-6.438,0.044-12.875,0.088-19.311,0.131c-9.314-22.561-21.062-47.754-30.486-67.803
				c-0.922,6.903-3.648,11.634-4.068,18.738c4.027,13.484,10.488,34.151,12.863,49.199c-6.164,0.038-12.332,0.075-18.494,0.107
				c-5.293-49.307-35.891-99.689-11.602-144.572c5.865,0.032,11.736,0.064,17.617,0.113c-8.525,16.69-9.762,41.426-7.824,57.223
				c3.984-15.771,11.693-40.573,25.082-57.103c6.01,0.046,12.027,0.093,18.049,0.146c-11.064,14.701-18.662,37.936-23.266,52.123
				C548.592,135.834,566.264,168.572,580.801,199.604z"/>
			<path fill="#FFFFFF" d="M614.194,56.301c-0.514,5.631-0.848,11.26-1.027,16.889c-9.18-0.108-18.266-0.204-27.271-0.277
				c-1.395,12.042-1.166,32.908,0.164,44.883c6.455,0.117,12.979,0.254,19.584,0.406c0.549,5.608,1.279,11.222,2.178,16.845
				c-6.484-0.172-12.908-0.333-19.258-0.481c2.613,14.103,6.418,32.779,10.662,47.337c9.244,0.123,18.551,0.266,27.924,0.423
				c1.605,5.635,3.344,11.264,5.24,16.892c-15.523,0.126-31.018,0.245-46.5,0.351c-12.248-46.418-29.406-100.104-14.602-143.706
				C585.557,55.994,599.86,56.131,614.194,56.301z"/>
		</g>
		<g>
			<polygon fill="#FFFFFF" points="673.233,0 669.895,0 589.764,0 589.764,6.676 669.895,6.676 669.895,12.451 662.881,12.451 
				662.881,19.124 669.895,19.124 669.895,24.896 662.881,24.896 662.881,31.569 669.895,31.569 669.895,37.343 662.881,37.343 
				662.881,44.02 669.895,44.02 669.895,49.791 662.881,49.791 662.881,56.464 669.895,56.464 669.895,62.239 654.192,62.239 
				654.192,68.915 669.895,68.915 669.895,74.687 662.881,74.687 662.881,81.36 669.895,81.36 669.895,87.128 662.881,87.128 
				662.881,93.805 669.895,93.805 669.895,99.582 662.881,99.582 662.881,106.258 669.895,106.258 669.895,112.027 662.881,112.027 
				662.881,118.703 669.895,118.703 669.895,124.478 654.192,124.478 654.192,131.153 669.895,131.153 669.895,136.922 
				662.881,136.922 662.881,143.596 669.895,143.596 669.895,149.37 662.881,149.37 662.881,156.046 669.895,156.046 
				669.895,161.817 662.881,161.817 662.881,168.494 669.895,168.494 669.895,174.266 662.881,174.266 662.881,180.938 
				669.895,180.938 669.895,186.71 654.192,186.71 654.192,193.387 669.895,193.387 669.895,199.158 662.881,199.158 
				662.881,205.834 669.895,205.834 669.895,211.605 662.881,211.605 662.881,218.279 669.895,218.279 669.895,224.057 
				662.881,224.057 662.881,230.729 669.895,230.729 669.895,236.501 662.881,236.501 662.881,243.177 669.895,243.177 
				669.895,248.949 589.764,248.949 589.764,255.622 669.895,255.622 673.233,255.622 676.573,255.622 676.573,0 			"/>
			<polygon fill="#FFFFFF" points="3.344,0 0,0 0,255.622 3.344,255.622 6.682,255.622 86.807,255.622 86.807,248.949 
				6.682,248.949 6.682,243.177 13.702,243.177 13.702,236.501 6.682,236.501 6.682,230.729 13.702,230.729 13.702,224.057 
				6.682,224.057 6.682,218.279 13.702,218.279 13.702,211.605 6.682,211.605 6.682,205.834 13.702,205.834 13.702,199.158 
				6.682,199.158 6.682,193.387 22.38,193.387 22.38,186.71 6.682,186.71 6.682,180.938 13.702,180.938 13.702,174.266 
				6.682,174.266 6.682,168.494 13.702,168.494 13.702,161.817 6.682,161.817 6.682,156.043 13.702,156.043 13.702,149.367 
				6.682,149.367 6.682,143.596 13.702,143.596 13.702,136.922 6.682,136.922 6.682,131.147 22.38,131.147 22.38,124.472 
				6.682,124.472 6.682,118.703 13.702,118.703 13.702,112.027 6.682,112.027 6.682,106.255 13.702,106.255 13.702,99.579 
				6.682,99.579 6.682,93.805 13.702,93.805 13.702,87.128 6.682,87.128 6.682,81.36 13.702,81.36 13.702,74.687 6.682,74.687 
				6.682,68.915 22.38,68.915 22.38,62.239 6.682,62.239 6.682,56.464 13.702,56.464 13.702,49.791 6.682,49.791 6.682,44.02 
				13.702,44.02 13.702,37.343 6.682,37.343 6.682,31.569 13.702,31.569 13.702,24.896 6.682,24.896 6.682,19.124 13.702,19.124 
				13.702,12.451 6.682,12.451 6.682,6.676 86.807,6.676 86.807,0 6.682,0 			"/>
		</g>
		<g>
			<g>
				<path fill="#FFFFFF" d="M701.077,16.06h-3.695l-3.795-6.306h-0.041v6.306h-3.049V0.417h4.125c3.094,0,5.232,1.371,5.232,4.709
					c0,1.99-1.1,3.983-3.195,4.339L701.077,16.06z M693.545,7.616h0.395c1.678,0,2.861-0.499,2.861-2.404
					c0-1.932-1.225-2.305-2.842-2.305h-0.414V7.616z"/>
				<path fill="#FFFFFF" d="M716.223,3.863c-0.58-0.791-1.328-1.29-2.346-1.29c-0.975,0-1.908,0.75-1.908,1.765
					c0,2.635,6.203,1.535,6.203,6.784c0,3.134-1.949,5.352-5.145,5.352c-2.158,0-3.734-1.243-4.814-3.049l1.973-1.929
					c0.412,1.202,1.514,2.285,2.822,2.285c1.246,0,2.01-1.059,2.01-2.264c0-1.617-1.494-2.075-2.717-2.553
					c-2.014-0.829-3.486-1.847-3.486-4.275c0-2.591,1.932-4.689,4.566-4.689c1.389,0,3.318,0.686,4.275,1.745L716.223,3.863z"/>
				<path fill="#FFFFFF" d="M728.774,16.06h-3.051V0.417h4.152c3.277,0,5.416,1.307,5.416,4.855c0,3.318-1.809,4.935-5.002,4.935
					h-1.516V16.06z M728.774,7.677h0.623c1.807,0,2.777-0.394,2.777-2.424c0-2.017-1.158-2.305-2.859-2.305h-0.541V7.677z"/>
			</g>
			<g>
				<path fill="#FFFFFF" d="M701.077,255.205h-3.695l-3.795-6.306h-0.041v6.306h-3.049v-15.644h4.125
					c3.094,0,5.232,1.372,5.232,4.71c0,1.993-1.1,3.985-3.195,4.339L701.077,255.205z M693.545,246.764h0.395
					c1.678,0,2.861-0.499,2.861-2.407c0-1.932-1.225-2.303-2.842-2.303h-0.414V246.764z"/>
				<path fill="#FFFFFF" d="M716.223,243.008c-0.58-0.788-1.328-1.289-2.346-1.289c-0.975,0-1.908,0.749-1.908,1.768
					c0,2.632,6.203,1.535,6.203,6.781c0,3.134-1.949,5.354-5.145,5.354c-2.158,0-3.734-1.243-4.814-3.049l1.973-1.932
					c0.412,1.202,1.514,2.284,2.822,2.284c1.246,0,2.01-1.059,2.01-2.265c0-1.616-1.494-2.074-2.717-2.55
					c-2.014-0.831-3.486-1.847-3.486-4.274c0-2.594,1.932-4.689,4.566-4.689c1.389,0,3.318,0.683,4.275,1.742L716.223,243.008z"/>
				<path fill="#FFFFFF" d="M728.774,255.205h-3.051v-15.644h4.152c3.277,0,5.416,1.308,5.416,4.855
					c0,3.318-1.809,4.935-5.002,4.935h-1.516V255.205z M728.774,246.824h0.623c1.807,0,2.777-0.396,2.777-2.428
					c0-2.013-1.158-2.302-2.859-2.302h-0.541V246.824z"/>
			</g>
			<g>
				<path fill="#FFFFFF" d="M701.077,135.633h-3.695l-3.795-6.309h-0.041v6.309h-3.049v-15.646h4.125
					c3.094,0,5.232,1.377,5.232,4.709c0,1.996-1.1,3.992-3.195,4.342L701.077,135.633z M693.545,127.188h0.395
					c1.678,0,2.861-0.496,2.861-2.404c0-1.932-1.225-2.305-2.842-2.305h-0.414V127.188z"/>
				<path fill="#FFFFFF" d="M716.223,123.436c-0.58-0.788-1.328-1.29-2.346-1.29c-0.975,0-1.908,0.747-1.908,1.768
					c0,2.632,6.203,1.529,6.203,6.781c0,3.134-1.949,5.352-5.145,5.352c-2.158,0-3.734-1.243-4.814-3.046l1.973-1.932
					c0.412,1.201,1.514,2.287,2.822,2.287c1.246,0,2.01-1.062,2.01-2.27c0-1.611-1.494-2.072-2.717-2.551
					c-2.014-0.829-3.486-1.844-3.486-4.272c0-2.597,1.932-4.692,4.566-4.692c1.389,0,3.318,0.688,4.275,1.745L716.223,123.436z"/>
				<path fill="#FFFFFF" d="M728.774,135.633h-3.051v-15.646h4.152c3.277,0,5.416,1.307,5.416,4.861
					c0,3.314-1.809,4.931-5.002,4.931h-1.516V135.633z M728.774,127.252h0.623c1.807,0,2.777-0.397,2.777-2.428
					c0-2.014-1.158-2.305-2.859-2.305h-0.541V127.252z"/>
			</g>
			<g>
				<path fill="#FFFFFF" d="M696.7,75.848h-3.053v-12.99h-3.15v-2.652h9.354v2.652h-3.15V75.848z"/>
				<path fill="#FFFFFF" d="M716.036,66.365v-6.16h3.051v15.643h-3.051v-6.991h-5.643v6.991h-3.049V60.205h3.049v6.16H716.036z"/>
				<path fill="#FFFFFF" d="M735.102,76.262c-4.771,0-7.738-3.65-7.738-8.258c0-4.645,3.07-8.217,7.738-8.217
					c4.672,0,7.74,3.572,7.74,8.217C742.842,72.612,739.879,76.262,735.102,76.262z M735.102,62.799
					c-2.883,0-4.584,2.55-4.584,5.083c0,2.404,1.205,5.372,4.584,5.372c3.385,0,4.586-2.968,4.586-5.372
					C739.688,65.349,737.985,62.799,735.102,62.799z"/>
				<path fill="#FFFFFF" d="M761.969,66.14h-0.041l-3.547,9.915h-1.057l-3.426-9.915h-0.037l-1.393,9.708h-3.07l2.635-16.06h2.156
					l3.861,10.312l3.693-10.312h2.201l2.342,16.06h-3.068L761.969,66.14z"/>
				<path fill="#FFFFFF" d="M777.198,72.548l-1.283,3.3H772.7l6.098-16.06h2.367l5.934,16.06h-3.256l-1.205-3.3H777.198z
					 M779.836,64.375h-0.041l-1.723,5.684h3.713L779.836,64.375z"/>
				<path fill="#FFFFFF" d="M793.487,60.205h3.611l2.488,4.853l2.285-4.853h3.609l-4.336,7.365l4.812,8.278h-3.549l-3.154-5.728
					l-2.984,5.728h-3.568l4.998-8.278L793.487,60.205z"/>
			</g>
			<g>
				<path fill="#FFFFFF" d="M696.7,195.417h-3.053V182.43h-3.15v-2.655h9.354v2.655h-3.15V195.417z"/>
				<path fill="#FFFFFF" d="M716.036,185.934v-6.159h3.051v15.643h-3.051v-6.991h-5.643v6.991h-3.049v-15.643h3.049v6.159H716.036z"
					/>
				<path fill="#FFFFFF" d="M735.102,195.834c-4.771,0-7.738-3.652-7.738-8.26c0-4.646,3.07-8.214,7.738-8.214
					c4.672,0,7.74,3.568,7.74,8.214C742.842,192.182,739.879,195.834,735.102,195.834z M735.102,182.368
					c-2.883,0-4.584,2.551-4.584,5.083c0,2.407,1.205,5.375,4.584,5.375c3.385,0,4.586-2.968,4.586-5.375
					C739.688,184.919,737.985,182.368,735.102,182.368z"/>
				<path fill="#FFFFFF" d="M761.969,185.709h-0.041l-3.547,9.915h-1.057l-3.426-9.915h-0.037l-1.393,9.708h-3.07l2.635-16.057
					h2.156l3.861,10.312l3.693-10.312h2.201l2.342,16.057h-3.068L761.969,185.709z"/>
				<path fill="#FFFFFF" d="M777.198,192.117l-1.283,3.3H772.7l6.098-16.057h2.367l5.934,16.057h-3.256l-1.205-3.3H777.198z
					 M779.836,183.944h-0.041l-1.723,5.687h3.713L779.836,183.944z"/>
				<path fill="#FFFFFF" d="M793.487,179.774h3.611l2.488,4.853l2.285-4.853h3.609l-4.336,7.364l4.812,8.278h-3.549l-3.154-5.728
					l-2.984,5.728h-3.568l4.998-8.278L793.487,179.774z"/>
			</g>
		</g>
	</g>
</g>
</svg>
