<?xml version="1.0" encoding="utf-8"?>
<!-- Generator: Adobe Illustrator 16.0.0, SVG Export Plug-In . SVG Version: 6.00 Build 0)  -->
<!DOCTYPE svg PUBLIC "-//W3C//DTD SVG 1.1//EN" "http://www.w3.org/Graphics/SVG/1.1/DTD/svg11.dtd">
<svg version="1.1" xmlns="http://www.w3.org/2000/svg" xmlns:xlink="http://www.w3.org/1999/xlink" x="0px" y="0px"
	 width="508.853px" height="40.493px" viewBox="0 0 508.853 40.493" enable-background="new 0 0 508.853 40.493"
	 xml:space="preserve">
<g id="Layer_1">
</g>
<g id="Layer_3">
	<g>
		<path fill="#FFFFFF" d="M26.008,39.472h-9.077L7.597,23.97H7.495v15.502H0V1.021h10.148C17.748,1.021,23,4.389,23,12.597
			c0,4.896-2.705,9.791-7.855,10.659L26.008,39.472z M7.495,18.717h0.97c4.129,0,7.039-1.225,7.039-5.916
			c0-4.746-3.011-5.661-6.988-5.661H7.495V18.717z"/>
		<path fill="#FFFFFF" d="M61.234,9.488c-1.429-1.939-3.266-3.164-5.766-3.164c-2.395,0-4.691,1.837-4.691,4.338
			c0,6.474,15.251,3.773,15.251,16.673c0,7.701-4.793,13.158-12.648,13.158c-5.304,0-9.178-3.059-11.832-7.498l4.848-4.742
			c1.017,2.957,3.722,5.609,6.933,5.609c3.059,0,4.947-2.598,4.947-5.559c0-3.977-3.67-5.1-6.678-6.273
			c-4.949-2.041-8.569-4.538-8.569-10.504C43.028,5.151,47.773,0,54.247,0c3.419,0,8.158,1.685,10.505,4.283L61.234,9.488z"/>
		<path fill="#FFFFFF" d="M94.082,39.472h-7.494V1.021h10.199c8.059,0,13.312,3.211,13.312,11.934
			c0,8.158-4.439,12.134-12.291,12.134h-3.726V39.472z M94.082,18.871h1.535c4.436,0,6.831-0.973,6.831-5.967
			c0-4.946-2.854-5.661-7.039-5.661h-1.327V18.871z"/>
		<path fill="#FFFFFF" d="M175.859,36.393c-2.512,2.19-5.311,3.893-8.755,3.893c-5.15,0-8.959-3.772-8.959-8.923
			c0-3.404,1.662-6.076,4.418-7.942l1.826-1.258c-1.422-1.986-2.472-4.017-2.472-6.488c0-4.542,3.405-7.582,7.779-7.582
			c4.421,0,7.826,2.96,7.826,7.542c0,3.365-2.431,5.676-5.026,7.377l4.257,5.476l3.08-3.933l3.773,3.527l-3.285,4.418l5.271,6.973
			h-7.257L175.859,36.393z M167.592,25.931c-1.622,1.218-3.448,2.676-3.448,4.906c0,1.943,1.622,4.098,3.648,4.098
			c1.863,0,3.284-1.422,4.542-2.639L167.592,25.931z M169.735,19.523l1.017-0.849c1.057-0.893,1.703-1.863,1.703-3.32
			c0-1.422-0.813-3.004-2.395-3.004c-1.618,0-2.512,1.382-2.512,2.839c0,0.809,0.245,1.582,0.729,2.271L169.735,19.523z"/>
		<path fill="#FFFFFF" d="M242.737,39.472h-7.498V7.549h-7.749V1.021h22.996v6.528h-7.749V39.472z"/>
		<path fill="#FFFFFF" d="M291.682,16.166V1.021h7.495v38.451h-7.495V22.286h-13.873v17.186h-7.494V1.021h7.494v15.145H291.682z"/>
		<path fill="#FFFFFF" d="M338.098,40.493c-11.73,0-19.024-8.975-19.024-20.296C319.073,8.774,326.622,0,338.098,0
			c11.474,0,19.019,8.774,19.019,20.197C357.116,31.519,349.826,40.493,338.098,40.493z M338.098,7.396
			c-7.091,0-11.271,6.273-11.271,12.495c0,5.912,2.96,13.209,11.271,13.209c8.31,0,11.27-7.297,11.27-13.209
			C349.367,13.669,345.184,7.396,338.098,7.396z"/>
		<path fill="#FFFFFF" d="M404.84,15.608h-0.103l-8.723,24.375h-2.6l-8.416-24.375H384.9l-3.419,23.863h-7.545L380.41,0h5.303
			l9.488,25.345L404.277,0h5.41l5.759,39.472H407.9L404.84,15.608z"/>
		<path fill="#FFFFFF" d="M440.312,31.362l-3.157,8.109h-7.906L444.241,0h5.814l14.584,39.472h-8.004l-2.961-8.109H440.312z
			 M446.793,11.271h-0.105l-4.232,13.975h9.128L446.793,11.271z"/>
		<path fill="#FFFFFF" d="M478.201,1.021h8.876l6.119,11.934l5.61-11.934h8.872l-10.654,18.105l11.828,20.346h-8.719l-7.753-14.076
			l-7.341,14.076h-8.774l12.288-20.346L478.201,1.021z"/>
	</g>
</g>
</svg>
